<svg width="16" height="16" viewBox="0 0 16 16" fill="none" xmlns="http://www.w3.org/2000/svg">
<path d="M8.6665 2.66634H3.99984C3.64622 2.66634 3.30708 2.80682 3.05703 3.05687C2.80698 3.30691 2.6665 3.64605 2.6665 3.99967V11.9997C2.6665 12.3533 2.80698 12.6924 3.05703 12.9425C3.30708 13.1925 3.64622 13.333 3.99984 13.333H8.6665M11.3332 2.66634H11.9998C12.3535 2.66634 12.6926 2.80682 12.9426 3.05687C13.1927 3.30691 13.3332 3.64605 13.3332 3.99967V4.66634M13.3332 11.333V11.9997C13.3332 12.3533 13.1927 12.6924 12.9426 12.9425C12.6926 13.1925 12.3535 13.333 11.9998 13.333H11.3332M13.3332 7.33301V8.66634M7.99984 1.33301V14.6663" stroke="#1E1E1E" stroke-width="1.33333" stroke-linecap="round" stroke-linejoin="round"/>
</svg>
