<svg width="16" height="16" viewBox="0 0 16 16" fill="none" xmlns="http://www.w3.org/2000/svg">
<path d="M10.9667 2H5.03333C3.35333 2 2 3.36 2 5.03333V10.96C2 12.64 3.36 13.9933 5.03333 13.9933H10.96C12.64 13.9933 13.9933 12.6333 13.9933 10.96V5.03333C13.9933 3.35333 12.6333 2 10.96 2H10.9667ZM11.6733 5.50667C11.6467 5.58 11.6 5.64667 11.5467 5.7C11.4933 5.75333 11.4267 5.8 11.3533 5.82667C11.28 5.85333 11.2067 5.87333 11.1267 5.87333C9.87333 5.87333 9.38667 6.64 8.73333 7.89333L8.33333 8.65333C7.72 9.84 6.95333 11.3133 4.88667 11.3133C4.72667 11.3133 4.58 11.2533 4.46667 11.14C4.35333 11.0267 4.29333 10.88 4.29333 10.72C4.29333 10.64 4.30667 10.5667 4.34 10.4933C4.36667 10.42 4.41333 10.3533 4.46667 10.3C4.52 10.2467 4.58667 10.2 4.66 10.1733C4.73333 10.1467 4.80667 10.1267 4.88667 10.1267C6.14 10.1267 6.62667 9.36 7.28 8.10667L7.68 7.34667C8.29333 6.16 9.06 4.68667 11.1267 4.68667C11.2867 4.68667 11.4333 4.74667 11.5467 4.86C11.66 4.97333 11.72 5.12 11.72 5.28C11.72 5.36 11.7067 5.43333 11.6733 5.50667Z" fill="#1E1E1E"/>
</svg>
